<svg xmlns="http://www.w3.org/2000/svg" viewBox="0 0 24 24" id="lufthansa">
  <path fill="#F9BA00" d="M11.973 22.753c5.954 0 10.781-4.777 10.781-10.706C22.754 6 17.998 1.25 11.904 1.25c-5.832 0-10.66 4.868-10.66 10.777 0 5.925 4.802 10.726 10.729 10.726z"></path>
  <path fill="#00235F" d="m9.493 11.459-.14.275c-.521-.115-1.473-.481-2.472-.937l-.136.253.409.226c1.452.753 1.93.91 2.769.91 1.679 0 2.951-.956 3.542-2.643 1.043-.205 2.383-.295 3.97-.295 1.362 0 2.543.068 4.064.251l-.385.481a26.757 26.757 0 0 0-2.93-.184 38.12 38.12 0 0 0-2.178.046l-.18.41c.931-.046 1.268-.046 1.997-.046 1.225 0 2.199.046 2.994.114l-.385.501c-1.429-.042-2.087-.067-3.153-.067-.591 0-1.023.025-1.726.044l-.183.411a34.858 34.858 0 0 1 2.339-.068c.84 0 1.837.024 2.429.046l-.388.503c-.404-.025-1.201-.025-1.815-.025-.974 0-2.199.045-2.836.138l-.183.364a28.29 28.29 0 0 1 3.155-.159c.499 0 .817 0 1.386.046l-.434.524c-.772-.046-1.018-.046-1.315-.046-2.156 0-3.561.317-4.972 1.117 1.294 1.298 3.45 2.186 5.381 2.186.158 0 .248 0 .658-.021l-.934.936c-5.127-1.345-6.035-1.712-10.734-4.514-1.859-1.071-3.382-1.8-4.609-2.166l.16-.569c.297.044.93.228 1.523.434l.27-.617 5.042 2.141z"></path>
  <path fill="#00235F" d="M12.189 0C5.371 0 0 5.307 0 12.047 0 18.648 5.371 24 11.973 24 18.647 24 24 18.673 24 12.026 24 5.448 18.671-.002 12.189 0zm-.216 22.753c-5.926 0-10.729-4.801-10.729-10.727 0-5.909 4.828-10.777 10.66-10.777 6.095 0 10.85 4.75 10.85 10.797 0 5.931-4.828 10.707-10.781 10.707z"></path>
  <path fill="#D9A200" d="M11.904 1.25c-5.832 0-10.66 4.868-10.66 10.777 0 5.926 4.803 10.727 10.729 10.727H12v-7.849c-1.348-.593-2.711-1.368-4.891-2.668-1.859-1.071-3.382-1.8-4.609-2.166l.16-.569c.297.044.93.228 1.523.434l.27-.617 5.041 2.142-.14.275c-.521-.115-1.473-.481-2.472-.937l-.136.253.409.226c1.452.753 1.93.91 2.769.91.792 0 1.494-.213 2.077-.615V1.25h-.097z"></path>
  <path fill="#001E53" d="m4.453 9.318-.27.617c-.593-.206-1.227-.39-1.523-.434l-.16.569c1.227.366 2.75 1.095 4.609 2.166 2.18 1.3 3.543 2.076 4.891 2.668v-3.332c-.582.402-1.284.615-2.077.615-.839 0-1.317-.157-2.769-.91l-.409-.226.136-.253c.999.456 1.952.822 2.472.937l.14-.275-5.04-2.142z"></path>
  <path fill="#001E53" d="M12 .001C5.272.099 0 5.369 0 12.047 0 18.648 5.371 24 11.973 24H12v-1.247h-.027c-5.926 0-10.729-4.801-10.729-10.727 0-5.909 4.828-10.777 10.66-10.777H12V.001z"></path>
</svg>